<?xml version="1.0" standalone="no"?><!DOCTYPE svg PUBLIC "-//W3C//DTD SVG 1.1//EN" "http://www.w3.org/Graphics/SVG/1.1/DTD/svg11.dtd"><svg t="1733579626654" class="icon" viewBox="0 0 1024 1024" version="1.1" xmlns="http://www.w3.org/2000/svg" p-id="6397" xmlns:xlink="http://www.w3.org/1999/xlink" width="200" height="200"><path d="M570.1632 0h-103.6288v207.2576h103.6288z m278.1184 115.0976L921.6 188.416l-146.6368 146.6368-73.3184-73.3184 146.6368-146.6368zM0 570.1632v-103.6288h207.2576v103.6288zM115.3024 188.416L188.416 115.0976l146.6368 146.6368-73.3184 73.3184z m219.7504 586.5472l-73.3184-73.3184-146.432 146.6368L188.416 921.6zM696.32 394.8544A213.4016 213.4016 0 0 0 394.8544 696.32z m327.68 78.848a350.0032 350.0032 0 0 0-94.4128-12.9024C755.5072 460.8 614.4 586.9568 614.4 742.4S755.5072 1024 929.5872 1024a350.0032 350.0032 0 0 0 94.4128-12.9024c-128-35.84-220.5696-143.36-220.5696-268.6976S896 509.5424 1024 473.7024z m0 0" fill="#333333" p-id="6398"></path></svg>